# xmcd
#
# Track frame offsets:
#	150
#	46567
#	67935
#	100472
#	120110
#
# Disc length: 1869 seconds
#
# Revision: 1
# Processed by: cddbd v1.4PL0 Copyright (c) Steve Scherf et al.
# Submitted via: audiograbber 1.82.02
#
DISCID=30074b05
DTITLE=Albert King - Blues Power
DYEAR=1900
DGENRE=Blues
TTITLE0=Blues Power
TTITLE1=Sun Gone Down (take 1)
TTITLE2=Match Box Blues
TTITLE3=Angel of Mercy
TTITLE4=Born Under a Bad Sign
EXTD=
EXTT0=
EXTT1=
EXTT2=
EXTT3=
EXTT4=
PLAYORDER=
